<svg width="202" height="180" viewBox="0 0 202 180" fill="none" xmlns="http://www.w3.org/2000/svg">
<path d="M200.824 171.693C180.211 171.185 159.545 171.738 138.94 172.148C139.175 170.621 139.297 169.069 139.48 167.534C139.858 164.358 140.479 161.206 141.121 158.074C141.852 154.5 142.603 150.938 143.331 147.363C146.58 149.386 149.651 151.718 153.05 153.488C156.629 155.353 160.573 156.409 164.484 157.311C169.687 158.505 177.474 160.158 181.336 155.276C181.608 154.93 181.633 154.561 181.515 154.264C188.071 150.686 184.614 140.458 183.753 134.813C182.981 129.731 182.246 124.553 180.711 119.634C179.289 115.081 177.169 110.605 176.543 105.84C176.539 105.808 176.527 105.779 176.515 105.751C177.802 104.236 178.749 102.51 178.98 101.307C179.878 96.6363 173.802 93.6591 169.728 92.9523C173.903 86.157 165.755 79.6501 161.084 75.7671C159.821 74.7192 158.623 73.7078 157.603 72.4121C156.308 70.763 155.154 68.8865 153.509 67.5543C150.78 65.3487 146.275 66.5145 144.037 68.9678C143.875 69.1465 144.029 69.4633 144.281 69.3861C146.023 68.8743 147.798 68.2488 149.63 68.2285C151.547 68.2041 152.547 69.1221 153.725 70.5437C155.69 72.9198 157.25 75.2309 159.63 77.2212C163.367 80.3447 171.04 85.9986 168.192 91.6769C167.778 91.5266 167.274 91.6038 167.031 92.0587C165.426 95.0238 161.304 98.0863 157.823 97.9361C156.941 97.8995 155.808 97.603 155.357 96.7419C154.833 95.7387 155.593 94.841 156.227 94.0855C156.482 93.8946 156.706 93.7159 156.876 93.5738C159.464 91.4129 162.165 86.811 161.905 83.6631C161.868 83.2204 161.478 82.8142 161.019 82.737C160.638 82.6721 160.309 82.8508 160.146 83.2163C159.963 83.6266 159.785 84.0368 159.61 84.4348C158.725 86.4738 157.884 88.3991 156.446 90.235C155.751 91.1245 154.988 91.8191 154.114 92.3634C153.574 92.7005 152.969 92.9848 152.319 93.2001C152.222 93.2326 151.998 93.3057 151.864 93.3382C151.889 93.2691 151.929 93.1798 151.966 93.0945L152.055 92.8833C152.368 92.1359 152.425 91.1692 152.478 90.3162C152.498 89.9832 152.518 89.6623 152.551 89.3699C152.685 88.1554 152.258 86.2423 152.506 84.776C152.697 83.521 152.835 82.2821 153.002 81.2139C153.18 80.0522 151.539 79.5283 151.194 80.7143C150.114 84.447 150.621 90.2797 146.373 91.7379C145.69 89.8898 145.361 88.2569 145.215 86.2708C145.069 84.3049 144.525 82.404 144.378 80.4462C144.098 76.746 148.201 73.8053 151.608 73.4275C151.909 73.395 152.128 72.9442 151.783 72.7817C150.252 72.0669 148.347 72.4608 146.665 73.3991C146.637 73.2244 146.551 73.0457 146.389 72.8833C145.776 72.274 145.041 71.6444 144.273 71.2383C143.887 71.0352 143.286 70.7793 142.798 70.8646C144.809 67.0181 145.95 62.7167 146.426 58.4194C147.77 46.2626 143.127 32.3065 130.938 27.5664C130.471 27.3837 130.114 27.5786 129.923 27.8995C128.956 26.8678 127.518 26.1976 126.133 25.6574C123.964 24.8126 121.734 24.2521 119.452 23.9962C118.85 20.4218 116.868 17.2253 115.073 14.1383C113.404 11.2667 112.047 7.47709 108.964 5.81584C108.416 5.52339 107.798 5.79147 107.608 6.36823C107.417 6.93281 107.344 7.50552 107.36 8.07416C106.551 7.27806 105.699 6.52664 104.781 5.88082C103.071 4.68261 101.287 3.59407 99.5206 2.47709C98.7773 2.00999 95.3045 -0.658575 94.4191 0.137526C94.35 0.202514 94.3338 0.299995 94.3541 0.389354C94.3582 0.413724 94.3663 0.442156 94.3703 0.466527C94.4313 0.742725 94.874 0.681799 94.8659 0.401539C94.8943 1.27887 98.3102 3.20008 99.2119 3.87433C102.421 6.27075 106.369 8.67124 108.696 11.9775C109.318 12.8589 110.638 12.1075 110.15 11.1286C109.695 10.2106 109.257 9.26831 109.196 8.28537C111.158 10.1253 112.283 13.2163 113.546 15.4259C114.334 16.8028 115.191 18.1595 115.893 19.5811C116.584 20.9742 116.994 22.404 117.425 23.8581C116.807 23.8418 116.186 23.8378 115.56 23.8662C111.901 24.0368 108.339 24.9182 105.041 26.4007C103.814 23.5453 100.759 21.0311 98.5499 19.0327C96.1169 16.8272 93.1193 14.2155 89.614 14.577C89.3703 14.6014 89.3582 14.9588 89.614 14.9669C93.1234 15.0807 96.2469 18.5778 98.4524 20.9702C99.5247 22.1278 100.617 23.2935 101.543 24.5729C102.189 25.4625 102.697 26.4129 103.444 27.1806C100.703 28.6144 98.1721 30.4665 95.9666 32.6842C87.8675 40.8199 84.7643 53.525 87.2339 64.7476C87.2054 64.7232 87.1811 64.6948 87.1526 64.6704C87.0105 64.5486 86.7465 64.6176 86.7546 64.8329C86.7952 65.763 87.0552 66.8719 87.8025 67.5055C87.8716 67.5624 87.9406 67.6152 88.0097 67.6599C88.4158 68.9434 88.8992 70.2025 89.4638 71.4251C89.61 71.7379 89.7643 72.0425 89.9187 72.343C89.0535 72.3959 88.1884 72.4446 87.3192 72.3755C86.06 72.2781 84.7115 71.5957 83.4889 71.6322C83.3427 71.6363 83.229 71.75 83.2249 71.8963C83.2046 72.8995 84.1754 73.5413 85.1339 73.9028C85.0487 73.9149 84.9593 73.9353 84.8659 73.9637C84.5897 74.0571 84.6181 74.3983 84.8659 74.4958C85.4954 74.7517 85.5686 76.1327 85.9179 76.6932C86.324 77.3431 86.8399 77.7249 87.5588 77.9889C89.2566 78.6103 91.4946 78.6875 93.2696 78.4194C93.623 78.3666 93.822 78.1757 93.8992 77.9361C101.718 86.0961 114.785 88.2691 125.613 84.7882C127.352 84.2277 129.054 83.521 130.682 82.6761C130.447 82.9767 130.252 83.3016 130.106 83.6631C128.456 87.737 136.137 89.5526 138.554 90.6412C143.067 92.6802 146.535 97.0912 151.734 97.2456C151.637 97.2984 151.572 97.408 151.6 97.5421C151.722 98.0579 151.799 98.5494 151.698 99.0855C151.6 99.6054 152.38 99.8329 152.502 99.3049C152.648 98.6712 152.685 97.6071 151.998 97.2496C152.031 97.2496 152.067 97.2537 152.1 97.2496C152.981 97.2415 153.257 96.3845 152.957 95.7874C153.087 95.7549 153.217 95.7143 153.347 95.6737C152.989 97.6517 154.679 99.3739 156.547 99.8654C157.104 100.012 157.689 100.077 158.282 100.073C158.842 100.666 159.415 101.25 160.004 101.823C158.972 101.287 157.384 101.596 156.287 101.6C154.545 101.608 153.266 101.238 151.734 100.45C151.531 100.345 151.304 100.519 151.357 100.743C151.706 102.286 153.485 102.875 154.854 103.151C156.259 103.44 158.57 103.923 159.959 103.46C160.479 103.285 160.682 102.737 160.495 102.302C161.43 103.196 162.396 104.057 163.379 104.861C164.927 106.12 166.832 107.916 168.924 108.038C170.967 110.04 173.708 108.667 175.824 106.51C175.435 110.174 176.661 113.643 177.794 117.107C179.257 121.584 180.061 126.177 180.772 130.824C181.381 134.809 182.055 138.793 182.632 142.782C182.892 144.589 183.091 146.506 182.746 148.314C182.372 150.284 181.332 151.535 179.976 152.928C179.618 153.294 179.622 153.728 179.817 154.057C174.967 157.863 167.957 155.995 162.526 154.723C155.658 153.119 149.935 149.268 143.456 146.75C143.972 144.199 144.476 141.64 144.935 139.077C145.954 133.379 147.006 127.688 148.042 121.994C149.196 122.449 150.41 123.452 151.097 123.976C152.376 124.951 153.456 126.104 154.626 127.197C155.288 127.814 156.068 127.335 156.182 126.665C156.434 128.302 156.726 129.926 157.149 131.523C157.981 134.662 159.22 137.765 160.418 140.779C160.804 141.75 162.173 141.393 161.994 140.345C161.434 137.136 160.215 134.053 159.338 130.917C158.469 127.806 158.067 124.565 157.514 121.384C156.45 115.268 155.528 108.887 152.872 103.212C152.705 102.855 152.214 103.123 152.274 103.464C153.396 109.744 154.655 115.986 155.564 122.311C155.743 123.553 155.906 124.8 156.092 126.047C156.06 125.982 156.019 125.917 155.971 125.856C154.724 124.248 152.62 122.973 150.845 122.034C150.028 121.6 149.119 121.194 148.209 121.088C148.253 120.832 148.302 120.58 148.347 120.324C148.834 117.631 149.265 114.926 149.707 112.225C150.069 110.02 150.54 107.7 150.215 105.467C150.162 105.101 149.549 105.113 149.484 105.467C148.57 110.527 147.384 115.544 146.34 120.58C145.049 126.811 144.037 133.09 142.908 139.35C141.783 145.572 140.418 151.738 139.163 157.936C138.59 160.767 138.054 163.61 137.664 166.474C137.335 168.903 137.238 171.376 136.629 173.752C136.519 173.696 136.389 173.655 136.243 173.643C132.262 173.269 128.136 173.553 124.135 173.553C120.37 173.553 116.6 173.553 112.835 173.553C104.898 173.553 96.9577 173.553 89.021 173.553C81.2184 173.553 73.4158 173.558 65.6092 173.562C61.7058 173.566 57.8066 173.598 53.9032 173.643C50.3736 173.683 46.7708 173.574 43.2412 173.895C43.2412 173.846 43.2452 173.801 43.2371 173.748C41.9455 162.64 40.3208 151.555 38.6799 140.495C36.8805 128.354 35.5036 115.942 32.5385 104.016C32.5466 104.016 32.5548 104.021 32.5669 104.025C47.7619 104.886 63.1112 104.439 78.3265 104.463C93.5783 104.488 108.834 104.512 124.086 104.512C132.709 104.512 141.389 104.788 150.004 104.39C151.101 104.341 151.105 102.733 150.004 102.68C145.313 102.465 140.601 102.469 135.893 102.506C135.983 102.233 135.918 101.925 135.597 101.665C132.449 99.1221 128.209 99.0368 124.366 98.3422C120.118 97.5746 115.837 96.9937 111.58 96.3154C111.556 96.3114 111.535 96.3154 111.515 96.3154C111.519 96.1367 111.474 95.9783 111.405 95.8443C111.385 95.7549 111.357 95.6656 111.304 95.5762C110.451 94.1262 109.098 92.8508 107.831 91.7622C106.751 90.8321 105.589 89.9588 104.265 89.4308C104.232 89.1627 104.192 88.8946 104.167 88.6225C104.123 88.1067 104.163 87.2781 103.708 86.9166C103.473 86.7297 103.172 86.7988 103.067 87.0872C102.859 87.6436 102.851 88.3382 102.77 88.9231C102.697 89.4389 102.603 89.9466 102.725 90.4097C99.8537 92.6355 95.8488 93.8053 92.246 93.7484C90.004 93.7119 87.8756 93.1067 85.9341 91.9897C85.1258 91.5266 84.2932 90.6493 83.428 90.036C83.3996 89.4227 83.3021 88.8215 83.0746 88.2488C82.9406 87.9158 82.77 87.6233 82.5751 87.343C83.9926 88.0254 85.4995 88.5575 87.0755 88.9271C90.0487 89.6217 93.1559 89.7517 96.1738 89.2643C98.8139 88.8378 102.331 87.863 104.188 85.8158C104.63 85.3244 104.208 84.3699 103.493 84.6217C102.193 85.0807 101.04 85.8402 99.7278 86.2951C98.294 86.7947 96.7911 87.0831 95.2842 87.2253C92.5466 87.4811 89.7643 87.2212 87.112 86.5104C81.5677 85.0238 77.3435 81.3642 74.8374 76.2342C72.2461 70.9255 71.32 64.7232 70.8976 58.8906C70.6579 55.6046 70.3858 52.3268 70.1218 49.0409C69.9877 47.3999 69.9227 45.759 69.8334 44.118C69.7928 43.3625 69.6547 42.603 69.5694 41.8435C69.8537 41.9694 70.203 41.9247 70.3614 41.5876C70.5401 41.2017 70.6335 40.9986 70.7188 40.7549C70.995 40.7346 71.255 40.5396 71.3728 40.2431C72.5669 37.2131 70.8772 33.6469 71.6693 30.434C72.3841 27.534 74.0089 24.6054 76.7668 23.2366C77.0755 23.0863 77.1933 22.798 77.1851 22.5055C79.4475 21.3236 81.8602 20.6128 84.4963 21.1733C84.9065 21.2626 85.1015 20.7549 84.7725 20.5153C81.6815 18.2894 77.0227 20.4503 74.1673 22.1237C73.6961 22.3999 73.623 22.8792 73.7976 23.261C72.2501 24.6948 71.1331 26.5226 70.398 28.5819C69.1673 32.0262 69.6141 35.8158 69.9268 39.4064C69.809 39.4917 69.7115 39.6136 69.6506 39.7638C69.6059 39.8613 69.5694 39.9629 69.5287 40.0604C69.4881 39.7801 69.0129 39.6745 68.8911 39.9588C68.3468 41.2342 68.0868 42.5461 67.9772 43.8825C67.8959 43.7687 67.8147 43.6591 67.7294 43.5534C67.5832 43.3747 67.2948 43.2772 67.0267 43.2854C66.848 42.4771 66.5474 41.7216 66.2469 40.9458C66.2225 40.8849 66.19 40.8321 66.1575 40.7833C66.2103 37.3106 65.3411 33.6875 65.2233 30.2188C65.1421 27.8833 65.3249 25.7509 65.6539 23.4519C65.9585 21.3114 66.2834 19.1546 66.3159 16.9897C66.3362 15.8199 66.3403 14.4267 65.7473 13.3625C67.3435 11.3032 69.6181 9.67855 72.108 8.75247C72.3029 8.93931 72.5872 9.04086 72.8919 8.97587C73.8911 8.75247 74.7156 8.43972 75.5767 7.88326C76.1778 7.49333 76.0032 6.61194 75.4426 6.40885C78.2574 4.41047 82.8147 3.40316 84.7197 5.90519C84.943 6.2017 85.5157 6.05142 85.3776 5.629C84.7521 3.74435 83.1274 3.03761 81.2144 3.05385C81.2631 3.02948 81.3037 2.98887 81.324 2.92794C82.2501 0.271563 90.5442 4.32518 92.0064 4.94662C94.0332 5.80771 96.0316 6.74597 98.0097 7.71673C99.2444 8.32193 100.459 9.08147 101.791 9.44703C102.681 9.69073 103.046 8.54126 102.38 8.04979C100.971 7.00186 99.1591 6.39667 97.5588 5.69805C95.0283 4.59325 92.4694 3.53314 89.8537 2.63956C88.5377 2.1887 80.7148 -0.593587 80.9057 2.87514C80.9097 2.96856 80.9625 3.03355 81.0316 3.06198C77.8025 3.16758 73.8139 5.25938 72.2867 7.26588C69.1185 8.42753 66.324 10.0725 64.2241 12.9807C64.0292 13.2529 64.1348 13.6428 64.3378 13.8703C65.3695 15.0197 64.7603 17.9036 64.6141 19.2683C64.3988 21.2748 64.0616 23.261 63.7854 25.2553C63.4849 27.4202 63.5336 29.5851 63.6433 31.7663C63.8098 35.0279 63.8261 38.7565 64.8049 41.8881C64.9024 42.2049 65.2071 42.3715 65.4995 42.3674C65.6417 42.9076 65.8001 43.4438 66.0316 43.9677C63.692 46.4332 64.216 51.0108 64.943 54.0043C65.3086 55.5234 65.8651 57.3471 67.043 58.456C67.4695 58.8581 68.034 59.1262 68.5946 59.183C68.6433 59.8573 68.692 60.5315 68.7489 61.2058C69.2607 67.274 70.4954 73.6591 73.5702 78.9881C75.4954 82.3268 78.2087 84.9588 81.454 86.7663C81.3565 86.8841 81.2997 87.0384 81.3362 87.1928C81.5271 87.9889 81.6327 88.8621 81.6002 89.6989C80.3411 89.4714 78.6189 90.9539 77.8309 91.5591C76.5921 92.5096 74.4394 93.85 74.2688 95.5518C74.2688 95.56 74.2688 95.564 74.2688 95.5721C72.0998 96.3926 69.6262 96.6729 67.3963 97.2415C65.008 97.8508 62.6563 98.6225 60.2192 99.0205C56.4946 99.6298 50.6051 98.9718 47.8716 102.148C47.7416 102.302 47.6807 102.497 47.6766 102.692C42.636 102.705 37.5954 102.77 32.571 103.054C32.2014 103.074 32.0552 103.395 32.1242 103.663C32.0633 103.704 32.0186 103.765 32.0227 103.854C32.1851 113.306 33.8261 122.737 35.3817 132.103C35.2396 132.396 35.1015 132.66 35.0446 132.806C34.7318 133.639 34.4353 134.471 34.1023 135.296C33.4646 136.884 32.77 138.44 32.043 139.987C30.6051 143.042 29.147 146.084 27.7335 149.146C26.389 152.055 25.1055 154.995 24.1754 158.066C23.4727 160.385 22.5101 163.237 22.9081 165.678C23.2046 167.489 24.346 168.728 25.796 169.597C17.2867 169.415 8.70016 169.837 0.203009 170.101C-0.0650656 170.109 -0.0650656 170.507 0.203009 170.515C9.24038 170.796 18.3752 171.267 27.4126 170.986C27.7172 170.978 27.9122 170.812 28.0015 170.601C28.7652 170.865 29.545 171.064 30.2842 171.222C33.8504 171.986 37.5141 172.002 41.1169 172.469C41.1738 172.895 41.2306 173.322 41.2875 173.748C41.2916 173.765 41.2956 173.781 41.2997 173.797C41.0925 173.7 40.8976 173.842 40.8732 174.061C40.7716 174.878 40.8041 175.735 40.7026 176.567C40.6214 177.233 40.5929 177.855 40.7757 178.46C40.7148 178.472 40.6498 178.484 40.5889 178.501C40.1868 178.594 40.1868 179.224 40.5889 179.317C44.4516 180.215 48.9032 179.809 52.8553 179.853C56.9049 179.902 60.9585 179.882 65.008 179.882C73.1112 179.882 81.2144 179.882 89.3175 179.882C105.512 179.882 121.746 180.19 137.937 179.829C138.225 179.999 138.627 180.012 138.891 179.845C138.924 179.825 138.952 179.8 138.98 179.776C139.5 179.642 139.699 179.106 139.586 178.659C139.728 177.997 139.703 177.237 139.671 176.718C139.622 175.954 139.48 174.459 138.655 174.09C138.627 174.077 138.599 174.069 138.57 174.061C138.696 173.553 138.794 173.046 138.883 172.53C159.508 172.94 180.199 173.493 200.828 172.985C201.657 172.96 201.657 171.713 200.824 171.693ZM149.561 91.7582C149.553 91.7825 149.545 91.8069 149.537 91.8313C149.24 92.7573 148.903 93.8012 149.448 94.6704C148.188 94.2358 147.063 93.5941 145.938 92.863C146.032 92.8183 146.113 92.7574 146.186 92.6924C147.616 92.7777 148.712 92.4202 149.561 91.7582ZM87.4979 75.5721C87.1201 75.1416 86.718 74.5648 86.2225 74.2074C87.8025 74.4958 89.4678 74.4024 91.0763 74.3617C91.5759 75.1335 92.112 75.8727 92.6847 76.5673C90.9747 76.4779 88.6798 76.9206 87.4979 75.5721ZM95.1989 76.3317C92.8634 73.785 91.1819 70.7549 90.0811 67.4811C90.1583 67.3187 90.1949 67.14 90.1705 66.9816C90.1258 66.6851 89.9634 66.486 89.7318 66.3682C87.2014 57.6883 88.623 47.5136 92.965 40.0279C96.5271 33.8906 102.453 29.0205 109.289 27.0019C113.391 25.7874 117.92 25.4543 122.104 26.4535C124.882 27.1156 128.806 28.2732 130.337 30.9255C130.528 31.2545 131.056 31.1123 131.052 30.7305C131.048 30.3487 130.995 29.9954 130.91 29.6623C140.292 33.6103 144.338 43.9474 144.496 53.5981C144.671 64.2074 140.414 74.5283 131.007 80.036C120.211 86.3601 104.049 85.9783 95.1989 76.3317ZM136.616 78.6712C136.588 78.724 136.588 78.789 136.637 78.8621C136.897 79.2358 137.023 79.6623 137.315 80.0238C137.449 80.1903 137.599 80.3487 137.75 80.5071C136.604 80.3 135.28 80.3487 134.041 80.6656C134.935 80.0482 135.796 79.382 136.616 78.6712ZM134.383 86.7866C132.823 86.023 130.808 84.8167 132.924 83.3747C133.891 82.7127 135.3 82.2009 136.486 82.2374C137.863 82.2821 142.498 83.5819 141.742 85.5762C141.645 85.8321 142.01 86.0108 142.185 85.8321C144.281 83.6956 140.898 81.5957 138.972 80.8443C139.013 80.7346 139.013 80.6168 138.928 80.499C138.66 80.1375 138.4 79.7638 138.103 79.4227C137.961 79.2643 137.79 79.1058 137.62 78.9799C137.417 78.8296 137.181 78.7525 136.982 78.59C136.909 78.5331 136.816 78.5291 136.738 78.5616C138.383 77.1197 139.862 75.495 141.105 73.6834C141.551 73.0295 141.966 72.3552 142.356 71.6647C142.636 72.0628 143.123 72.3999 143.469 72.7127C144.009 73.2041 144.484 73.7484 145 74.2602C145.057 74.3171 145.114 74.3617 145.175 74.4024C143.972 75.3812 143.03 76.5916 142.64 77.7452C141.763 80.365 142.924 83.3504 143.079 85.9946C143.172 87.6233 143.107 89.8045 143.846 91.4373C143.655 91.3073 143.46 91.1733 143.261 91.0433C140.455 89.1871 137.38 88.2529 134.383 86.7866ZM169.837 106.376C169.809 106.368 169.781 106.364 169.756 106.36C169.703 106.311 169.647 106.267 169.577 106.226C168.668 105.71 167.66 105.418 166.751 104.882C165.499 104.146 164.423 103.192 163.29 102.29C162.246 101.462 161.129 100.568 159.927 99.8816C163.452 99.1546 167.055 96.3601 168.501 93.4154C168.692 93.4925 168.903 93.5088 169.106 93.46C170.56 94.0571 172.08 95.17 173.29 96.0311C174.675 97.014 176.917 98.59 176.864 100.523C176.783 103.525 172.725 107.193 169.837 106.376ZM66.5718 52.3187C66.2509 50.4503 65.926 47.5055 67.0389 45.6818C67.5141 46.5632 67.6847 47.5868 68.0056 48.5453C68.0137 48.7119 68.0219 48.8825 68.03 49.049C68.1478 51.6851 68.2737 54.3292 68.4402 56.9694C67.2095 56.2911 66.7749 53.4966 66.5718 52.3187ZM86.0072 101.632C86.0357 101.653 86.0681 101.673 86.1006 101.689C86.125 101.701 86.1534 101.713 86.1778 101.722C86.8439 102.014 87.6928 101.681 87.6847 100.856C87.6807 100.418 89.6872 98.7159 90.1136 98.3382C90.8366 97.7005 91.6408 97.1968 92.4532 96.6891C92.9731 96.3642 93.4361 96.1367 93.7245 95.6534C93.7489 95.6534 93.7733 95.6493 93.7936 95.6493C94.7034 96.7297 96.5921 100.926 98.4768 102.571C94.3541 102.575 90.2314 102.579 86.1128 102.587C86.2225 102.274 86.1859 101.908 86.0072 101.632ZM122.368 99.776C124.387 100.215 126.393 100.69 128.42 101.088C129.549 101.311 130.731 101.421 131.811 101.827C132.303 102.014 132.758 102.27 133.213 102.53C131.251 102.546 129.289 102.562 127.327 102.562C119.634 102.562 111.937 102.558 104.244 102.571C103.176 102.571 102.108 102.575 101.036 102.575C101.064 102.526 101.084 102.481 101.105 102.432C103.493 102.428 105.536 101.332 107.648 100.223C109.151 99.4348 110.776 98.6753 111.352 97.0181C114.5 98.9271 118.834 99.0084 122.368 99.776ZM106.917 92.997C107.859 94.0246 108.623 95.17 109.476 96.2545C109.476 96.2667 109.472 96.2789 109.468 96.2911C109.326 97.6477 107.051 98.4722 106.023 99.0571C104.33 100.024 102.563 100.97 100.613 101.255C100.577 101.234 100.54 101.214 100.499 101.198C100.357 101.149 100.235 101.129 100.089 101.1C99.9024 101.064 99.7481 101.019 99.7521 101.035C99.5247 100.893 99.3297 100.71 99.1388 100.527C98.4565 99.8654 97.9 99.0733 97.3476 98.3057C96.6977 97.408 96.0519 96.2951 95.1908 95.499C98.4808 95.04 101.775 93.7606 104.285 91.681C104.777 91.2748 104.675 90.7305 104.326 90.3853C104.326 90.3812 104.326 90.3772 104.326 90.3731C105.175 91.2626 106.084 92.0912 106.917 92.997ZM76.519 95.2066C76.8967 94.3089 78.3062 93.3788 79.021 92.7492C79.8862 91.9856 80.7595 91.3195 81.7627 90.7833C82.0267 91.0595 82.4979 91.1327 82.8756 90.9946C83.9601 92.1968 85.0365 93.2651 86.6043 94.0977C88.1031 94.8979 89.7318 95.4503 91.4134 95.6331C90.3086 96.1002 89.2729 96.7744 88.3915 97.5096C87.4329 98.3097 86.06 99.3008 85.6173 100.507C85.5239 100.763 85.5929 101.116 85.7595 101.38C85.6132 101.279 85.4264 101.214 85.203 101.214C83.0178 101.218 81.2469 100.194 79.5491 98.8987C78.7083 98.2529 76.0397 96.3479 76.519 95.2066ZM55.467 101.445C57.6888 101.185 59.9187 100.982 62.0998 100.462C64.3866 99.9182 66.649 99.1708 68.9032 98.5088C70.6985 97.9807 72.8188 97.6396 74.4841 96.6851C75.0933 98.0092 76.7749 99.2236 77.6969 99.9872C79.0088 101.072 80.3858 102.01 81.9008 102.595C74.0941 102.607 66.2875 102.627 58.4808 102.672C55.9179 102.688 53.3549 102.684 50.7879 102.684C52.2826 102.124 53.7286 101.648 55.467 101.445ZM31.6855 169.228C29.9715 168.907 28.0868 168.513 26.6287 167.497C24.8943 166.287 24.9268 164.768 25.2396 162.81C26.2347 156.592 29.0373 150.877 31.714 145.239C32.9975 142.534 34.2241 139.809 35.203 136.973C35.4305 136.32 35.6498 135.657 35.8488 134.987C36.1128 136.6 36.3647 138.212 36.6043 139.825C37.3151 144.614 37.9894 149.41 38.6474 154.211C35.1908 154.232 33.0787 157.696 31.2875 160.259C31.0275 160.629 31.5921 161.039 31.9008 160.735C34.0576 158.578 35.6214 155.966 38.8586 155.747C39.5247 160.613 40.1746 165.479 40.8245 170.349C37.8594 169.679 34.6709 169.788 31.6855 169.228ZM89.3175 177.928C81.2144 177.928 73.1112 177.928 65.008 177.928C60.9585 177.928 56.9049 177.912 52.8553 177.956C49.5694 177.997 45.9422 177.725 42.5954 178.143C42.3476 177.29 42.3151 176.466 42.2014 175.58C42.177 175.402 42.1486 175.219 42.108 175.036C45.995 175.499 49.9959 175.365 53.9073 175.41C57.6766 175.45 61.4418 175.487 65.2071 175.491C73.1437 175.499 81.0844 175.499 89.021 175.499C96.8236 175.499 104.626 175.499 112.433 175.499C116.336 175.499 120.235 175.499 124.139 175.499C128.14 175.499 132.266 175.783 136.247 175.41C136.34 175.402 136.422 175.381 136.499 175.353C136.775 175.747 137.384 175.893 137.827 175.657C137.811 176.047 137.798 176.441 137.766 176.823C137.738 177.172 137.656 177.571 137.595 177.977C121.515 177.627 105.398 177.928 89.3175 177.928ZM139.322 50.4503C138.184 45.2025 135.272 40.1456 130.78 37.0912C128.119 35.2837 125.061 34.5648 121.917 34.1262C120.203 33.8865 118.546 33.6266 116.864 33.2163C115.435 32.8711 114.143 32.7005 112.77 33.0904C109.817 32.3715 106.482 34.5729 104.045 36.4251C103.461 36.6038 103.002 36.8556 102.758 37.1846C102.681 37.2902 102.64 37.408 102.632 37.5258C99.1144 40.3284 96.0194 43.7159 94.5572 48.0457C91.5109 57.0506 93.8626 68.5616 101.572 74.5323C109.277 80.5031 120.613 80.365 128.684 75.2228C136.974 69.9344 141.417 60.1253 139.322 50.4503ZM105.089 73.3179C104.931 73.5413 104.716 73.8175 104.533 74.1099C103.972 73.7728 103.444 73.4072 102.937 73.0173C103.773 73.1148 104.602 73.066 105.398 72.8873C105.296 73.0335 105.195 73.1757 105.089 73.3179ZM129.846 71.8475C123.209 77.339 113.416 78.6997 105.686 74.7517C105.833 74.5729 105.971 74.3983 106.105 74.2439C106.649 73.6347 107.27 73.066 107.709 72.3755C107.815 72.209 107.823 72.0262 107.77 71.8556C107.811 71.8272 107.847 71.7906 107.888 71.7622C107.937 71.8394 107.993 71.9166 108.034 71.9978C108.257 72.4202 108.331 72.8061 108.643 73.1798C109.127 73.7565 109.923 73.2326 109.984 72.6233C110.077 71.6688 109.102 70.6737 108.456 70.0725C107.754 69.4227 106.905 68.7322 106.015 68.3666C105.682 68.2326 105.439 68.6631 105.581 68.9312C105.889 69.512 106.397 69.9994 106.868 70.4868C105.788 71.6119 104.293 71.8475 102.819 72.2374C102.551 72.3065 102.494 72.538 102.567 72.7289C96.9617 68.1676 94.6628 60.4828 95.4061 53.3179C95.9625 47.9767 98.4443 43.7403 102.197 40.0482C102.697 39.5567 103.241 39.0124 103.822 38.456C104.289 38.4113 104.752 38.2082 105.215 38.127C106.036 37.9807 106.88 37.9401 107.709 37.9482C109.192 37.9604 111.166 38.0863 111.905 39.6095C111.966 39.7395 112.189 39.7435 112.25 39.6095C113.335 37.2943 109.651 36.1002 106.515 36.1083C108.156 34.8532 109.959 33.854 111.82 33.655C111.625 34.1018 111.978 34.6907 112.624 34.6014C115.106 34.2602 117.778 35.5112 120.24 35.8443C123.14 36.2342 126.076 36.6201 128.651 38.0985C132.506 40.3041 135.142 44.2358 136.56 48.3747C139.484 56.8963 136.775 66.1164 129.846 71.8475ZM110.967 48.261C112.019 50.3325 111.86 52.8142 110.861 54.8776C110.455 55.7224 109.062 55.499 108.863 54.6176C108.814 54.4064 108.79 54.1952 108.769 53.9881C107.916 52.3552 108.404 50.2228 108.899 48.5331C109.163 47.6396 110.512 47.3634 110.967 48.261ZM131.836 53.9556C133.042 56.0027 132.36 59.0124 131.88 61.1814C131.409 63.3219 129.216 72.079 125.495 69.7435C125.37 69.6664 125.276 69.5729 125.203 69.4714C125.114 70.3528 124.955 71.3926 124.309 71.7094C123.989 71.8678 123.558 71.9369 123.241 71.7094C122.266 71.0149 122.738 69.7963 122.924 68.8093C123.245 67.1075 123.59 65.4097 123.928 63.7119C124.456 61.0717 124.736 58.4763 124.878 55.824C124.752 55.7346 124.647 55.6087 124.59 55.4422C123.566 52.3877 123.615 48.8256 123.006 45.6371C122.53 43.1473 122.124 39.772 120.3 37.8589C120.17 37.7249 120.305 37.5421 120.471 37.5664C122.717 37.9198 123.627 42.339 124.09 44.0693C125.008 47.473 125.747 51.0758 126.06 54.5973C127.214 57.1359 126.608 60.2188 126.239 62.867C125.991 64.6542 125.682 66.4292 125.37 68.2041C125.532 68.0579 125.743 67.9564 125.991 67.9279C128.079 67.7127 128.972 63.6306 129.468 62.014C129.789 60.9702 130.081 59.9101 130.28 58.8337C130.451 57.9117 130.581 56.9653 130.439 56.0311C130.37 55.5803 130.268 55.1294 130.045 54.7232C129.939 54.4795 129.789 54.2683 129.598 54.0815C129.472 54.0612 129.346 54.0165 129.232 53.9515C128.627 53.9921 128.022 54.0327 127.421 54.0693C127.205 54.3171 126.84 54.0002 126.986 53.7322C127.4 52.9807 128.014 52.5502 128.684 52.404C128.664 50.6168 128.993 48.8581 128.737 47.0425C128.432 44.906 127.985 42.6639 127.258 40.629C127.169 40.3772 127.526 40.2716 127.66 40.4584C129.082 42.4771 130.28 44.3008 130.662 46.7825C130.954 48.6753 131.133 50.8808 130.755 52.8061C131.174 53.0904 131.551 53.4722 131.836 53.9556ZM134.756 15.9052C134.931 11.945 135.686 7.07498 137.721 3.61844C138.245 2.72891 139.431 3.37067 139.281 4.27644C138.956 6.27075 137.937 8.21632 137.27 10.1253C136.6 12.0425 135.995 14.0205 135.674 16.0311C135.589 16.5551 134.732 16.421 134.756 15.9052ZM146.604 24.508C148.31 23.4763 149.943 22.4446 151.503 21.1895C152.941 20.0319 154.269 18.7037 155.841 17.7249C156.653 17.2212 157.392 18.3301 156.815 18.9881C155.426 20.5599 153.534 21.746 151.767 22.8508C150.337 23.7484 148.493 24.9629 146.726 24.9385C146.486 24.9385 146.405 24.6257 146.604 24.508ZM157.859 41.815C161.738 41.4292 165.504 40.5112 169.358 40.0197C170.365 39.8898 170.463 41.4332 169.586 41.7094C165.877 42.8792 161.694 42.802 157.859 42.4568C157.445 42.4202 157.449 41.8556 157.859 41.815ZM168.282 62.1237C169.123 62.4121 168.785 63.6834 167.912 63.4641C165.008 62.737 161.828 62.4649 159.135 61.088C158.806 60.9174 159.045 60.434 159.378 60.5112C162.311 61.2017 165.426 61.1448 168.282 62.1237ZM82.4207 50.3528C82.7375 51.6201 80.7838 52.1562 80.467 50.893C80.2436 50.0035 80.2842 49.1465 80.3492 48.2448C80.4061 47.4162 80.4061 46.5673 80.6945 45.7793C80.8407 45.3812 81.3281 45.2066 81.653 45.5275C82.9041 46.75 82.0389 48.8215 82.4207 50.3528ZM83.3793 35.6168C82.4532 35.9336 81.4215 35.763 80.467 36.023C79.2729 36.3439 78.6798 37.0384 77.835 37.8508C77.2948 38.3666 76.3119 37.8548 76.5434 37.0993C77.2257 34.9101 81.8114 33.0214 83.5661 34.9101C83.7895 35.1538 83.6839 35.5112 83.3793 35.6168ZM97.372 21.088C98.1193 21.482 97.5832 22.7898 96.7911 22.4649C93.5621 21.1327 90.4345 19.4552 87.0755 18.46C85.333 17.9442 83.5377 17.6314 81.718 17.6152C80.0405 17.5989 78.363 18.2448 76.714 17.8954C76.4946 17.8508 76.5393 17.5624 76.714 17.4974C83.9235 14.7354 90.9585 17.6964 97.372 21.088ZM91.4703 81.2829C90.5645 81.153 89.939 80.7265 89.1997 80.2188C88.9479 80.0482 89.1794 79.642 89.4394 79.8085C90.7107 80.6128 92.3841 80.0644 93.7448 79.8288C94.5084 79.6948 94.8171 80.7508 94.0657 80.9986C93.2087 81.2829 92.372 81.4129 91.4703 81.2829Z" fill="#1F2D3E"/>
</svg>
